<svg id="Layer_1" data-name="Layer 1" xmlns="http://www.w3.org/2000/svg" viewBox="0 0 528 522.24"><defs><style>.cls-1{fill:#ffb316;}.cls-2{fill:#e4000d;}</style></defs><title>ICON TIÊU CHUẨN</title><path class="cls-1" d="M125.85,427V71.38h4.46q91.6,0,183.2.11A9.49,9.49,0,0,1,319.66,74q38.73,39.66,77.14,79.64a8.23,8.23,0,0,1,2.11,5.17q.16,77.15.08,154.31c0,.83-.08,1.66-.14,2.76h-22.3V167.19H305.89V94.1H148.32V404.54H291.58l1,22.5ZM364,153.56l.48-1-44.42-45.82c-.9,15.18-.87,29.75-.92,44.32,0,3,2.1,2.51,3.84,2.52,9.49,0,19,0,28.47,0Z"/><path class="cls-1" d="M387.38,327.17A84.56,84.56,0,0,1,472.1,412c-.07,46.12-38.19,84.16-84.43,84.24-46.72.08-84.45-37.94-84.44-85.08C303.24,365,341.06,327.24,387.38,327.17Zm69.49,84.52c-.14-38.39-31.38-69.53-69.57-69.34a69.3,69.3,0,0,0-68.9,69.42c.15,38.19,31.26,69.32,69.23,69.26S457,449.52,456.87,411.7Z"/><path class="cls-2" d="M248.14,152.24a11.46,11.46,0,0,0,3.93,9.8c5.41,4.92,5.7,10.52.68,15.91A12.13,12.13,0,0,0,249.42,188c.7,7.5-2.47,11.48-9.89,12.54a12.63,12.63,0,0,0-9.22,6c-3.86,5.76-9.68,6.71-15.48,2.8a11.46,11.46,0,0,0-10.08-1.53c-7.48,2.07-11.77-.23-14.36-7.7a12.12,12.12,0,0,0-7.27-7.71c-6.37-2.67-8.46-8.22-5.65-14.64a11.4,11.4,0,0,0-.31-10.54c-3.26-6.32-1.52-11.69,4.67-15a12.53,12.53,0,0,0,7-9c1.39-6.51,6.54-9.65,13.1-8a12.09,12.09,0,0,0,10.76-2.21c5.84-4.18,11.28-3.49,15.51,2.16a11.84,11.84,0,0,0,9.7,5.08C244.75,140.65,248.56,145.27,248.14,152.24Z"/><path class="cls-1" d="M191.08,218.92c5.49,0,10.87,0,16.24,0a5.65,5.65,0,0,1,2.32.55c12.71,6.1,21.4,4.18,30.1-6.68.16-.19.46-.27,1-.59v68.09l-23.93-25.05-24.43,26-1.33-1Z"/><path class="cls-2" d="M307.11,337.82v12.81h-116V337.82Z"/><path class="cls-2" d="M307.22,301.38v12.81H190.77c0-3.72-.14-7.23.11-10.7.06-.82,1.31-1.81,2.24-2.24s1.95-.09,2.94-.09l100.29.23Z"/><path class="cls-2" d="M377.17,452.36c-11.33-11.05-23.17-22.62-35-34.14-1.93-1.87-1.62-3.24.33-4.84,4.69-3.87,9.28-7.86,14.36-12.18L378.89,426l41.64-45.69,14.71,15.39Z"/></svg>