<svg id="Layer_1" data-name="Layer 1" xmlns="http://www.w3.org/2000/svg" viewBox="0 0 528.77 523"><defs><style>.cls-1{fill:#ffb316;}.cls-2{fill:#e4000d;}</style></defs><title>IOCN CAO CẤP</title><path class="cls-1" d="M62,237.25Q101,189.34,140,141.4a9.36,9.36,0,0,1,8-3.89q105.84.11,211.69,0a9.73,9.73,0,0,1,8.33,3.93q37.45,46.31,75.06,92.49c3.86,4.75,3.85,6.39,0,11.1L259.74,469.69c-4,4.95-7.6,5-11.59.08L64.65,244.82c-.85-1-1.74-2.05-2.61-3.08Zm192.05-84c-.71.77-1.08,1.1-1.38,1.49q-33.26,42-66.4,84c-.93,1.19-.94,3.76-.4,5.36q33.16,99.91,66.53,199.75c.36,1.07.84,2.1,1.62,4l67.48-202.46H208.45a33.66,33.66,0,0,1-3.74-.06,6,6,0,0,1,.18-11.88c1.11-.11,2.25,0,3.37,0h111ZM80.81,245.65,236.75,436.8l.56-.31L173.69,245.65ZM270.52,436.49l.63.24L427,245.69H334.12Zm-3.67-286.8c.67,1,1,1.45,1.36,1.91q32.47,40,65,79.87a6.81,6.81,0,0,0,4.72,2c28.47.12,56.94.09,85.41.07,1,0,2.06-.15,3.59-.27l-63.46-78.1-10.64,35.33c-2.52,8.35-5,16.74-7.59,25.05a5.73,5.73,0,0,1-7.35,4c-3.23-1-4.79-3.85-4-7.35.16-.73.36-1.45.57-2.17q6-20.05,12.08-40.1c2-6.65,4-13.31,6-20.2ZM80.79,233.32h88.79l-25.84-77.49Zm99.36-6.25,61.2-77.31h-87Z"/><path class="cls-1" d="M62,237.25,64,238.82Q103,190.92,141.9,143a8.11,8.11,0,0,1,2.65-2.27,7.26,7.26,0,0,1,3.35-.69v-2l0,2h0v-2l0,2h.06q53.11.05,106.22.05,52.74,0,105.48-.05h0l0-1.64V140h0l0-1.64V140a8.2,8.2,0,0,1,3.58.68A7.93,7.93,0,0,1,366,143q37.46,46.32,75.07,92.49A18.48,18.48,0,0,1,443,238.2a2.77,2.77,0,0,1,.42,1.31,2.73,2.73,0,0,1-.42,1.29,18.29,18.29,0,0,1-1.9,2.66L257.81,468.11a10.73,10.73,0,0,1-2.38,2.27,2.81,2.81,0,0,1-1.53.54,2.76,2.76,0,0,1-1.49-.52,10.38,10.38,0,0,1-2.32-2.21L66.59,243.24c-.89-1.09-1.79-2.11-2.64-3.12L62,241.74h2.5v-4.5H62L64,238.82,62,237.25h-2.5q0,2.25,0,4.5v.92l.59.7c.89,1,1.76,2,2.58,3l183.5,224.94a15.19,15.19,0,0,0,3.51,3.27,7.37,7.37,0,0,0,8.41,0,15.55,15.55,0,0,0,3.56-3.32L444.94,246.62a22.78,22.78,0,0,0,2.42-3.45,7.11,7.11,0,0,0,0-7.34,23,23,0,0,0-2.43-3.47q-37.55-46.24-75.06-92.48a12.93,12.93,0,0,0-4.54-3.7,13.18,13.18,0,0,0-5.71-1.16h-.07l.05,2.5V135q-52.74.05-105.47.05-53.11,0-106.21-.05v2.5L148,135h-.07a12.27,12.27,0,0,0-5.58,1.21,13.08,13.08,0,0,0-4.31,3.6q-38.88,48-77.91,95.85l-.56.69v.89Zm192.05-84-1.83-1.71-.82.86c-.23.24-.46.48-.69.77h0q-33.25,42-66.41,84.05a5.87,5.87,0,0,0-1,2.25,9.53,9.53,0,0,0-.25,2.24,10.37,10.37,0,0,0,.49,3.21q33.16,99.91,66.53,199.75c.21.63.45,1.22.72,1.86s.58,1.37,1,2.31l2.54,6.28,2.14-6.43,67.48-202.46L325,243H208.45l-2,0a13.28,13.28,0,0,1-1.46-.07,3.77,3.77,0,0,1-2.4-1.15,3.32,3.32,0,0,1-.86-2.3v0H201l.72,0v0H201l.72,0v-.05a3.28,3.28,0,0,1,.9-2.29,3.92,3.92,0,0,1,2.51-1.12c.4,0,.84-.05,1.31-.05l1.82,0H324.52l-3.31-4.08L256,151.71l-1.81-2.23-2,2.1,1.83,1.71-1.94,1.58,65.17,80.22,1.94-1.58V231h-111l-1.82,0c-.56,0-1.16,0-1.79.07a8.92,8.92,0,0,0-5.63,2.62,8.3,8.3,0,0,0-2.3,5.68l2.5,0-2.5-.09c0,.09,0,.16,0,.19a8.34,8.34,0,0,0,2.18,5.68,8.77,8.77,0,0,0,5.53,2.74,18.13,18.13,0,0,0,2,.1l2,0h113.1v-2.5l-2.37-.79L251.69,447.16l2.37.79,2.32-.94c-.4-1-.72-1.74-1-2.35s-.44-1.08-.59-1.52q-33.32-99.86-66.53-199.74a5.52,5.52,0,0,1-.23-1.63,4.6,4.6,0,0,1,.11-1.05,1.84,1.84,0,0,1,.1-.3l0-.06h0l-.17-.11.16.12h0l-.17-.11.16.12q33-42.13,66.39-84h0c.07-.09.18-.21.39-.43l.87-.91-1.83-1.71-1.94,1.58ZM80.81,245.65l-1.94,1.58L234.81,438.38l1.33,1.63,1.83-1,.56-.31,1.8-1-.65-2L176.06,244.86l-.57-1.71h-100l3.33,4.08,1.94-1.58v2.5h92.88v-2.5l-2.37.79,63.62,190.84,2.37-.79-1.22-2.18-.56.31,1.22,2.18,1.94-1.58L82.75,244.07l-1.94,1.58v0ZM270.52,436.49l-.9,2.33.63.24,1.69.65,1.15-1.4,155.85-191,3.33-4.08H332.32l-.57,1.71-63.6,190.8L267.4,438l2.23.86.9-2.33,2.37.79,63.6-190.8-2.37-.79v2.5H427v-2.5l-1.94-1.58-155.85,191,1.94,1.58.9-2.33-.63-.24-.9,2.33,2.37.79Zm-3.67-286.8-2,1.44.78,1.12c.22.32.43.61.68.92q32.47,40,65,79.88a6.53,6.53,0,0,0,1.48,1.31,9.65,9.65,0,0,0,2.51,1.15,9.55,9.55,0,0,0,2.65.41q25.55.1,51.09.09h34.34c.64,0,1.23,0,1.83-.1l2-.18,4.75-.37-3-3.7-63.46-78.1-3-3.66-1.36,4.51-10.64,35.33c-2.52,8.37-5,16.74-7.58,25a3.82,3.82,0,0,1-1.3,1.95,3,3,0,0,1-1.83.61,3.65,3.65,0,0,1-1.09-.17,3.55,3.55,0,0,1-1.86-1.24,3.33,3.33,0,0,1-.61-2,5.48,5.48,0,0,1,.13-1.16h0c.14-.63.32-1.29.52-2q6-20.05,12.08-40.1c2-6.66,4-13.32,6-20.21l1-3.21H262l2.78,3.94,2-1.44v2.5h85.7v-2.5l-2.4-.71c-2.05,6.9-4,13.56-6,20.2q-6,20.05-12.08,40.1c-.23.75-.45,1.54-.62,2.36h0a10.45,10.45,0,0,0-.24,2.22,8.34,8.34,0,0,0,1.6,5,8.55,8.55,0,0,0,4.38,3,8.65,8.65,0,0,0,2.59.4,8,8,0,0,0,4.85-1.62,8.82,8.82,0,0,0,3-4.42c2.65-8.36,5.09-16.75,7.6-25.09l10.64-35.33-2.39-.72-1.94,1.58L425,234.8l1.94-1.58-.19-2.49-2,.18c-.55.05-1,.08-1.38.08H389q-25.54,0-51.06-.09a5,5,0,0,1-1.69-.36,4.22,4.22,0,0,1-.75-.38,1.64,1.64,0,0,1-.36-.29q-32.63-39.83-65-79.86c-.12-.15-.25-.33-.45-.62l-.8-1.16-2,1.44v0ZM80.79,233.32v2.5h92.26l-1.1-3.29L146.12,155l-1.44-4.32-2.87,3.53-63,77.49-3.31,4.08h5.25v-2.5l1.94,1.58,63-77.49-1.94-1.58-2.37.79,25.84,77.49,2.37-.79v-2.5H80.79v2.5l1.94,1.58Zm99.36-6.25,2,1.55,61.2-77.31,3.21-4.05H150.92l1.1,3.29,25.76,77.31,1.46,4.39,2.87-3.63-2-1.55,2.37-.79L156.76,149l-2.37.79v2.5h87v-2.5l-2-1.55-61.2,77.31,2,1.55,2.37-.79Z"/><path class="cls-2" d="M135.73,68.11l8.65-8.65,47,47.06-8.64,8.59Z"/><path class="cls-2" d="M247.87,44h12.85v66.68H247.87Z"/><path class="cls-2" d="M363.82,59.72l8.38,7.88L325,114.83,317.58,106Z"/></svg>