<svg id="Layer_1" data-name="Layer 1" xmlns="http://www.w3.org/2000/svg" viewBox="0 0 532 526.19"><defs><style>.cls-1{fill:#ffb316;}</style></defs><title>ICON TIẾT KIỆM</title><path class="cls-1" d="M388.56,143.88c6,4.66,12,8.91,17.52,13.65,22.27,19.07,38.46,42.18,46.17,70.77a118.86,118.86,0,0,1,4,27.72c.15,5.35-.13,4.26,4.3,4.36,2.68.06,5.36-.06,8,0,3.93.14,5.45,1.75,5.45,5.66q0,21.28,0,42.55c0,4.45-1.61,6-6.18,6-7.4,0-14.81,0-22.21,0-1.44,0-2.41.22-3.19,1.72-14.46,27.93-36.23,48.74-63.27,64.25-3.17,1.82-4.19,3.71-4.13,7.25.22,12.13.1,24.26.09,36.4,0,4.92-1.3,6.21-6.14,6.21H318.16c-4.29,0-5.76-1.46-5.78-5.76,0-5.62,0-11.24,0-16.86,0-1,0-1.92,0-3.26a225.59,225.59,0,0,1-71.15.74c-.08,1.1-.19,2-.2,3,0,5.26,0,10.53,0,15.79,0,5-1.39,6.39-6.3,6.39H184.12c-4.56,0-6-1.45-6-6.11,0-12-.06-24.09,0-36.13a3.92,3.92,0,0,0-2.51-4.07c-23.48-12.34-43.59-28.68-59.05-50.4-13.73-19.28-22-40.65-24-64.32-.05-.61-.16-1.21-.26-2H86.94c3.19,7.7,3.15,15.21-.94,22.43A23.52,23.52,0,0,1,74.38,300.2a24.32,24.32,0,0,1-28.94-8c-5.84-8-7.55-21.29,3.34-32.5l-10.23-5.63c-.78-.43-1.59-.81-2.32-1.32a6.89,6.89,0,0,1-2.32-9.18,6.79,6.79,0,0,1,9.25-2.76c6.55,3.43,13.06,7,19.48,10.61a15.79,15.79,0,0,0,8.59,2.24c6.94-.2,13.89-.06,20.91-.06.6-4.72,1-9.21,1.74-13.66a126.6,126.6,0,0,1,22.32-53.8c16.6-23.46,38.42-40.68,64-53.35a203.77,203.77,0,0,1,58.11-18.41,222,222,0,0,1,111.13,10.28,5.32,5.32,0,0,0,3.73-.28,132.79,132.79,0,0,1,52.93-13.63c2.53-.11,4.89.13,6.15,2.74,1.07,2.22.24,4.41-2.35,6.4a85.45,85.45,0,0,0-20.72,22.88C389,143.12,388.78,143.5,388.56,143.88ZM264,187.88c-1.8.39-3.19.71-4.58,1-12.33,2.48-22,8.59-28.43,19.76-9.28,16.13-7.95,37.34,3.53,51.19,5.6,6.76,13.17,10.54,21,13.76,8.73,3.57,17.63,6.74,26.35,10.33,3.85,1.58,7.68,3.44,9.89,7.36,5.47,9.75-.4,22.66-11.35,24.7a42.76,42.76,0,0,1-8.77.65C261,316.36,253,310.5,249.51,300.4c-.81-2.34-1.33-4.77-2-7.38l-27.78,7.25c.62,2.25,1.09,4.14,1.67,6,6.25,20,19.23,32.26,40.42,35,1.66.21,2.29.85,2.27,2.54-.08,5.17,0,10.35,0,15.52,0,3.84,0,3.84,4,3.85,3.57,0,7.14-.15,10.7,0,2.51.14,3.46-.55,3.36-3.23-.2-5.25,0-10.52-.1-15.78-.05-2.13.6-2.84,2.78-3.13,10.36-1.39,20-4.76,27.63-12.2,11.45-11.1,15-24.92,13.23-40.34-1.45-12.68-7.79-22.53-18.66-29.06-5.77-3.47-12.1-6-18.29-8.74-8.07-3.54-16.39-6.52-24.32-10.31-6.19-3-8.54-8.4-7.54-14.8,1.07-6.87,5.74-12.2,12-13.51,8.23-1.72,15.32.38,20.52,7.1,2.42,3.13,4.08,6.85,6,10.32.51.9.84,1.9,1.34,3.07,8-3.28,15.71-6.44,23.4-9.71a2.26,2.26,0,0,0,.79-2c-4.23-13.23-11.7-23.81-25-29.15-4.34-1.74-9-2.74-13.83-4.17,0-4.25-.1-8.79,0-13.32.07-2.16-.53-3-2.83-2.92-4.1.17-8.21.15-12.31,0-2.19-.08-3,.59-2.92,2.85C264.1,178.63,264,183.18,264,187.88ZM274.43,130l-.06-.66c-10.54,1-21.09,1.88-31.62,3-3.8.4-7.54,1.31-11.3,2.08-2.92.59-4.51,2.82-4,5.35s2.56,3.79,5.49,3.36c.88-.13,1.76-.3,2.63-.48a187.69,187.69,0,0,1,56.63-3c7.79.8,15.5,2.27,23.25,3.43,3.25.48,5.51-1.17,5.61-4.07.08-2.54-1.33-4-4.47-4.7A189.51,189.51,0,0,0,274.43,130ZM395,218.7c0,4.92,1.13,9.13,4.6,12.41a6.78,6.78,0,0,0,9.43.23c6.4-5.31,6.42-18.92,0-24.31a6.87,6.87,0,0,0-9.45.15C396.18,210.37,395,214.49,395,218.7ZM64.76,288.18a10.35,10.35,0,1,0,.32-20.71,10.73,10.73,0,0,0-10.51,10.09A10.51,10.51,0,0,0,64.76,288.18Z"/></svg>